<svg xmlns="http://www.w3.org/2000/svg" xmlns:xlink="http://www.w3.org/1999/xlink" width="500" zoomAndPan="magnify" viewBox="0 0 375 374.999991" height="500" preserveAspectRatio="xMidYMid meet" version="1.0"><defs><clipPath id="2048a1e6a5"><path d="M 75 105 L 130 105 L 130 270 L 75 270 Z M 75 105 " clip-rule="nonzero"/></clipPath><clipPath id="2864666b93"><path d="M 187.496094 0 L 375.234375 187.738281 L 187.496094 375.476562 L -0.238281 187.738281 Z M 187.496094 0 " clip-rule="nonzero"/></clipPath><clipPath id="b627c2162d"><path d="M 187.496094 0 L 375.234375 187.738281 L 187.496094 375.476562 L -0.238281 187.738281 Z M 187.496094 0 " clip-rule="nonzero"/></clipPath><clipPath id="446c6ee93d"><path d="M 125 55 L 200 55 L 200 320 L 125 320 Z M 125 55 " clip-rule="nonzero"/></clipPath><clipPath id="170d4a8f8a"><path d="M 187.496094 0 L 375.234375 187.738281 L 187.496094 375.476562 L -0.238281 187.738281 Z M 187.496094 0 " clip-rule="nonzero"/></clipPath><clipPath id="d499374642"><path d="M 187.496094 0 L 375.234375 187.738281 L 187.496094 375.476562 L -0.238281 187.738281 Z M 187.496094 0 " clip-rule="nonzero"/></clipPath><clipPath id="ff3a43a32c"><path d="M 174 6 L 271 6 L 271 370 L 174 370 Z M 174 6 " clip-rule="nonzero"/></clipPath><clipPath id="0be0f6ab5d"><path d="M 187.496094 0 L 375.234375 187.738281 L 187.496094 375.476562 L -0.238281 187.738281 Z M 187.496094 0 " clip-rule="nonzero"/></clipPath><clipPath id="7f2a46b153"><path d="M 187.496094 0 L 375.234375 187.738281 L 187.496094 375.476562 L -0.238281 187.738281 Z M 187.496094 0 " clip-rule="nonzero"/></clipPath></defs><g clip-path="url(#2048a1e6a5)"><g clip-path="url(#2864666b93)"><g clip-path="url(#b627c2162d)"><path fill="#ffd700" d="M 96.941406 109.335938 C 96.355469 108.75 95.714844 108.226562 95.023438 107.761719 C 94.332031 107.300781 93.601562 106.910156 92.835938 106.59375 C 92.066406 106.273438 91.273438 106.035156 90.460938 105.871094 C 89.644531 105.710938 88.820312 105.628906 87.988281 105.628906 C 87.160156 105.628906 86.335938 105.710938 85.519531 105.871094 C 84.703125 106.035156 83.914062 106.273438 83.144531 106.59375 C 82.375 106.910156 81.648438 107.300781 80.957031 107.761719 C 80.265625 108.226562 79.625 108.75 79.039062 109.335938 C 78.449219 109.925781 77.925781 110.566406 77.464844 111.257812 C 77 111.945312 76.609375 112.675781 76.292969 113.445312 C 75.976562 114.210938 75.734375 115.003906 75.574219 115.820312 C 75.410156 116.636719 75.328125 117.457031 75.328125 118.289062 C 75.328125 119.121094 75.410156 119.945312 75.574219 120.757812 C 75.734375 121.574219 75.976562 122.367188 76.292969 123.132812 C 76.609375 123.902344 77 124.632812 77.464844 125.324219 C 77.925781 126.015625 78.449219 126.652344 79.039062 127.242188 C 80.027344 128.234375 80.988281 129.25 81.929688 130.289062 C 82.867188 131.332031 83.78125 132.390625 84.667969 133.476562 C 85.554688 134.5625 86.414062 135.667969 87.246094 136.792969 C 88.078125 137.917969 88.882812 139.066406 89.660156 140.230469 C 90.433594 141.398438 91.183594 142.582031 91.898438 143.785156 C 92.617188 144.988281 93.308594 146.207031 93.964844 147.441406 C 94.625 148.679688 95.253906 149.929688 95.851562 151.199219 C 96.445312 152.464844 97.011719 153.746094 97.546875 155.039062 C 98.082031 156.335938 98.585938 157.644531 99.054688 158.960938 C 99.527344 160.28125 99.964844 161.613281 100.367188 162.953125 C 100.773438 164.292969 101.148438 165.644531 101.484375 167.003906 C 101.824219 168.363281 102.128906 169.726562 102.402344 171.101562 C 102.675781 172.476562 102.914062 173.855469 103.117188 175.242188 C 103.324219 176.628906 103.492188 178.015625 103.628906 179.410156 C 103.765625 180.804688 103.871094 182.203125 103.9375 183.601562 C 104.007812 185 104.039062 186.402344 104.039062 187.800781 C 104.039062 189.203125 104.003906 190.601562 103.9375 192 C 103.867188 193.398438 103.765625 194.796875 103.625 196.191406 C 103.488281 197.585938 103.316406 198.976562 103.113281 200.359375 C 102.90625 201.746094 102.667969 203.125 102.394531 204.5 C 102.121094 205.875 101.816406 207.238281 101.476562 208.597656 C 101.136719 209.957031 100.761719 211.308594 100.355469 212.648438 C 99.949219 213.988281 99.511719 215.320312 99.039062 216.636719 C 98.570312 217.957031 98.066406 219.265625 97.53125 220.558594 C 96.996094 221.851562 96.429688 223.132812 95.832031 224.398438 C 95.234375 225.667969 94.605469 226.917969 93.945312 228.15625 C 93.285156 229.390625 92.597656 230.609375 91.878906 231.8125 C 91.160156 233.015625 90.410156 234.199219 89.632812 235.363281 C 88.855469 236.527344 88.050781 237.675781 87.21875 238.800781 C 86.386719 239.925781 85.527344 241.03125 84.636719 242.117188 C 83.75 243.199219 82.835938 244.261719 81.898438 245.300781 C 80.960938 246.339844 79.996094 247.355469 79.007812 248.347656 C 78.417969 248.9375 77.890625 249.578125 77.429688 250.269531 C 76.964844 250.960938 76.574219 251.691406 76.257812 252.460938 C 75.9375 253.230469 75.699219 254.023438 75.535156 254.839844 C 75.371094 255.660156 75.292969 256.484375 75.292969 257.316406 C 75.292969 258.148438 75.371094 258.972656 75.535156 259.789062 C 75.699219 260.605469 75.9375 261.398438 76.257812 262.167969 C 76.574219 262.9375 76.964844 263.667969 77.429688 264.363281 C 77.890625 265.054688 78.417969 265.695312 79.007812 266.285156 C 79.59375 266.871094 80.234375 267.398438 80.929688 267.859375 C 81.621094 268.324219 82.351562 268.714844 83.121094 269.03125 C 83.890625 269.351562 84.683594 269.59375 85.5 269.753906 C 86.316406 269.917969 87.140625 270 87.972656 270 C 88.808594 270 89.632812 269.917969 90.449219 269.753906 C 91.265625 269.59375 92.058594 269.351562 92.828125 269.03125 C 93.597656 268.714844 94.328125 268.324219 95.019531 267.859375 C 95.710938 267.398438 96.351562 266.871094 96.941406 266.285156 C 98.222656 264.996094 99.472656 263.679688 100.691406 262.335938 C 101.90625 260.988281 103.089844 259.613281 104.242188 258.207031 C 105.390625 256.800781 106.503906 255.371094 107.585938 253.910156 C 108.664062 252.449219 109.707031 250.964844 110.714844 249.453125 C 111.722656 247.945312 112.691406 246.410156 113.621094 244.851562 C 114.554688 243.292969 115.445312 241.714844 116.300781 240.109375 C 117.15625 238.507812 117.96875 236.886719 118.742188 235.246094 C 119.519531 233.601562 120.253906 231.945312 120.945312 230.265625 C 121.640625 228.589844 122.292969 226.894531 122.902344 225.183594 C 123.511719 223.476562 124.082031 221.75 124.605469 220.011719 C 125.132812 218.277344 125.617188 216.527344 126.054688 214.765625 C 126.496094 213.003906 126.894531 211.234375 127.246094 209.453125 C 127.601562 207.671875 127.910156 205.882812 128.175781 204.085938 C 128.441406 202.292969 128.664062 200.492188 128.839844 198.683594 C 129.019531 196.875 129.152344 195.066406 129.238281 193.253906 C 129.328125 191.441406 129.375 189.625 129.375 187.808594 C 129.375 185.996094 129.328125 184.179688 129.238281 182.367188 C 129.152344 180.554688 129.019531 178.746094 128.839844 176.9375 C 128.664062 175.128906 128.441406 173.328125 128.175781 171.535156 C 127.910156 169.738281 127.601562 167.949219 127.246094 166.167969 C 126.894531 164.386719 126.496094 162.617188 126.054688 160.855469 C 125.617188 159.09375 125.132812 157.34375 124.605469 155.609375 C 124.082031 153.871094 123.511719 152.144531 122.902344 150.4375 C 122.292969 148.726562 121.640625 147.03125 120.945312 145.355469 C 120.253906 143.675781 119.519531 142.015625 118.742188 140.375 C 117.96875 138.734375 117.15625 137.113281 116.300781 135.511719 C 115.445312 133.90625 114.554688 132.328125 113.621094 130.769531 C 112.691406 129.210938 111.722656 127.675781 110.714844 126.167969 C 109.707031 124.65625 108.664062 123.171875 107.585938 121.710938 C 106.503906 120.25 105.390625 118.820312 104.242188 117.414062 C 103.089844 116.007812 101.90625 114.632812 100.691406 113.285156 C 99.472656 111.941406 98.222656 110.625 96.941406 109.335938 Z M 96.941406 109.335938 " fill-opacity="1" fill-rule="nonzero"/></g></g></g><g clip-path="url(#446c6ee93d)"><g clip-path="url(#170d4a8f8a)"><g clip-path="url(#d499374642)"><path fill="#ffd700" d="M 146.804688 59.472656 C 146.21875 58.886719 145.578125 58.363281 144.886719 57.898438 C 144.195312 57.4375 143.464844 57.046875 142.699219 56.730469 C 141.929688 56.410156 141.136719 56.171875 140.324219 56.007812 C 139.507812 55.847656 138.683594 55.765625 137.851562 55.765625 C 137.023438 55.765625 136.199219 55.847656 135.382812 56.007812 C 134.566406 56.171875 133.777344 56.410156 133.007812 56.730469 C 132.242188 57.046875 131.511719 57.4375 130.820312 57.898438 C 130.128906 58.363281 129.488281 58.886719 128.902344 59.472656 C 128.3125 60.0625 127.789062 60.703125 127.328125 61.390625 C 126.863281 62.082031 126.476562 62.8125 126.15625 63.582031 C 125.839844 64.347656 125.597656 65.140625 125.4375 65.957031 C 125.273438 66.773438 125.191406 67.59375 125.191406 68.425781 C 125.191406 69.257812 125.273438 70.082031 125.4375 70.894531 C 125.597656 71.710938 125.839844 72.503906 126.15625 73.269531 C 126.476562 74.039062 126.863281 74.769531 127.328125 75.460938 C 127.789062 76.152344 128.3125 76.789062 128.902344 77.378906 C 130.703125 79.1875 132.460938 81.039062 134.175781 82.933594 C 135.886719 84.828125 137.554688 86.765625 139.171875 88.742188 C 140.789062 90.71875 142.355469 92.730469 143.875 94.785156 C 145.394531 96.839844 146.863281 98.929688 148.277344 101.054688 C 149.695312 103.179688 151.058594 105.335938 152.371094 107.53125 C 153.679688 109.722656 154.9375 111.945312 156.136719 114.199219 C 157.339844 116.453125 158.484375 118.734375 159.574219 121.042969 C 160.664062 123.355469 161.699219 125.691406 162.671875 128.050781 C 163.648438 130.410156 164.566406 132.792969 165.421875 135.199219 C 166.28125 137.605469 167.082031 140.03125 167.820312 142.476562 C 168.558594 144.917969 169.238281 147.382812 169.859375 149.859375 C 170.476562 152.335938 171.035156 154.828125 171.53125 157.335938 C 172.027344 159.839844 172.460938 162.355469 172.835938 164.882812 C 173.207031 167.410156 173.519531 169.945312 173.769531 172.484375 C 174.019531 175.027344 174.203125 177.574219 174.328125 180.125 C 174.453125 182.675781 174.515625 185.230469 174.511719 187.78125 C 174.511719 190.335938 174.449219 192.890625 174.320312 195.441406 C 174.195312 197.992188 174.007812 200.539062 173.757812 203.078125 C 173.503906 205.621094 173.191406 208.15625 172.816406 210.683594 C 172.441406 213.207031 172.003906 215.722656 171.503906 218.230469 C 171.007812 220.734375 170.445312 223.226562 169.824219 225.703125 C 169.203125 228.179688 168.523438 230.640625 167.78125 233.085938 C 167.039062 235.53125 166.238281 237.953125 165.378906 240.359375 C 164.519531 242.761719 163.597656 245.144531 162.621094 247.503906 C 161.644531 249.867188 160.609375 252.199219 159.519531 254.507812 C 158.425781 256.816406 157.28125 259.097656 156.074219 261.351562 C 154.871094 263.605469 153.613281 265.828125 152.300781 268.015625 C 150.988281 270.207031 149.625 272.367188 148.207031 274.492188 C 146.789062 276.613281 145.316406 278.703125 143.796875 280.753906 C 142.277344 282.808594 140.707031 284.820312 139.085938 286.796875 C 137.46875 288.769531 135.800781 290.703125 134.085938 292.597656 C 132.371094 294.492188 130.613281 296.339844 128.808594 298.148438 C 128.214844 298.738281 127.6875 299.382812 127.222656 300.078125 C 126.761719 300.773438 126.367188 301.503906 126.046875 302.277344 C 125.726562 303.050781 125.488281 303.84375 125.324219 304.664062 C 125.160156 305.484375 125.078125 306.3125 125.078125 307.148438 C 125.078125 307.984375 125.160156 308.8125 125.324219 309.628906 C 125.488281 310.449219 125.726562 311.246094 126.046875 312.019531 C 126.367188 312.789062 126.761719 313.523438 127.222656 314.21875 C 127.6875 314.914062 128.214844 315.554688 128.808594 316.148438 C 129.398438 316.738281 130.039062 317.265625 130.734375 317.730469 C 131.429688 318.195312 132.164062 318.585938 132.9375 318.90625 C 133.707031 319.226562 134.503906 319.46875 135.324219 319.628906 C 136.144531 319.792969 136.96875 319.875 137.804688 319.875 C 138.640625 319.875 139.46875 319.792969 140.289062 319.628906 C 141.109375 319.46875 141.90625 319.226562 142.675781 318.90625 C 143.449219 318.585938 144.183594 318.195312 144.875 317.730469 C 145.570312 317.265625 146.214844 316.738281 146.804688 316.148438 C 148.90625 314.046875 150.953125 311.894531 152.949219 309.695312 C 154.941406 307.496094 156.882812 305.246094 158.765625 302.949219 C 160.652344 300.652344 162.476562 298.3125 164.246094 295.925781 C 166.015625 293.542969 167.726562 291.113281 169.375 288.644531 C 171.027344 286.175781 172.617188 283.664062 174.144531 281.117188 C 175.667969 278.570312 177.132812 275.988281 178.535156 273.367188 C 179.933594 270.746094 181.269531 268.09375 182.539062 265.410156 C 183.808594 262.726562 185.011719 260.011719 186.148438 257.265625 C 187.285156 254.523438 188.355469 251.75 189.355469 248.953125 C 190.355469 246.15625 191.285156 243.339844 192.148438 240.496094 C 193.011719 237.652344 193.804688 234.792969 194.523438 231.910156 C 195.246094 229.027344 195.898438 226.132812 196.476562 223.21875 C 197.054688 220.304688 197.5625 217.378906 198 214.441406 C 198.4375 211.503906 198.800781 208.554688 199.089844 205.601562 C 199.382812 202.644531 199.601562 199.683594 199.746094 196.714844 C 199.890625 193.75 199.964844 190.78125 199.964844 187.808594 C 199.964844 184.839844 199.890625 181.871094 199.746094 178.90625 C 199.601562 175.9375 199.382812 172.976562 199.089844 170.019531 C 198.800781 167.066406 198.4375 164.117188 198 161.179688 C 197.5625 158.242188 197.054688 155.316406 196.476562 152.402344 C 195.898438 149.488281 195.246094 146.59375 194.523438 143.710938 C 193.804688 140.828125 193.011719 137.96875 192.148438 135.125 C 191.285156 132.28125 190.355469 129.464844 189.355469 126.667969 C 188.355469 123.871094 187.285156 121.097656 186.148438 118.355469 C 185.011719 115.609375 183.808594 112.894531 182.539062 110.210938 C 181.269531 107.527344 179.933594 104.875 178.535156 102.253906 C 177.132812 99.632812 175.667969 97.050781 174.144531 94.503906 C 172.617188 91.957031 171.027344 89.445312 169.375 86.976562 C 167.726562 84.507812 166.015625 82.078125 164.246094 79.695312 C 162.476562 77.308594 160.652344 74.96875 158.765625 72.671875 C 156.882812 70.375 154.941406 68.125 152.949219 65.925781 C 150.953125 63.726562 148.90625 61.574219 146.804688 59.472656 Z M 146.804688 59.472656 " fill-opacity="1" fill-rule="nonzero"/></g></g></g><g clip-path="url(#ff3a43a32c)"><g clip-path="url(#0be0f6ab5d)"><g clip-path="url(#7f2a46b153)"><path fill="#ffd700" d="M 196.480469 9.796875 C 195.894531 9.210938 195.253906 8.6875 194.5625 8.222656 C 193.871094 7.761719 193.140625 7.371094 192.375 7.054688 C 191.605469 6.734375 190.8125 6.496094 190 6.332031 C 189.183594 6.171875 188.359375 6.089844 187.527344 6.089844 C 186.699219 6.089844 185.875 6.171875 185.058594 6.332031 C 184.242188 6.496094 183.453125 6.734375 182.683594 7.054688 C 181.914062 7.371094 181.1875 7.761719 180.496094 8.222656 C 179.804688 8.6875 179.164062 9.210938 178.578125 9.796875 C 177.988281 10.386719 177.464844 11.027344 177.003906 11.71875 C 176.539062 12.40625 176.148438 13.136719 175.832031 13.90625 C 175.515625 14.671875 175.273438 15.464844 175.113281 16.28125 C 174.949219 17.097656 174.867188 17.917969 174.867188 18.75 C 174.867188 19.582031 174.949219 20.40625 175.113281 21.21875 C 175.273438 22.035156 175.515625 22.828125 175.832031 23.59375 C 176.148438 24.363281 176.539062 25.09375 177.003906 25.785156 C 177.464844 26.476562 177.988281 27.113281 178.578125 27.703125 C 181.191406 30.324219 183.742188 33.011719 186.226562 35.757812 C 188.710938 38.507812 191.125 41.3125 193.472656 44.179688 C 195.820312 47.046875 198.09375 49.96875 200.296875 52.945312 C 202.5 55.921875 204.628906 58.953125 206.683594 62.035156 C 208.738281 65.117188 210.71875 68.25 212.617188 71.425781 C 214.519531 74.605469 216.34375 77.832031 218.085938 81.097656 C 219.828125 84.367188 221.492188 87.675781 223.074219 91.027344 C 224.652344 94.375 226.152344 97.761719 227.566406 101.183594 C 228.984375 104.609375 230.3125 108.066406 231.558594 111.554688 C 232.804688 115.042969 233.964844 118.558594 235.039062 122.105469 C 236.109375 125.648438 237.097656 129.21875 237.996094 132.8125 C 238.894531 136.40625 239.703125 140.019531 240.425781 143.652344 C 241.148438 147.285156 241.777344 150.933594 242.320312 154.597656 C 242.863281 158.261719 243.316406 161.9375 243.679688 165.625 C 244.042969 169.3125 244.3125 173.003906 244.496094 176.703125 C 244.675781 180.402344 244.765625 184.105469 244.765625 187.808594 C 244.765625 191.515625 244.675781 195.21875 244.496094 198.917969 C 244.3125 202.617188 244.042969 206.308594 243.679688 209.996094 C 243.316406 213.683594 242.863281 217.359375 242.320312 221.023438 C 241.777344 224.6875 241.148438 228.335938 240.425781 231.96875 C 239.703125 235.601562 238.894531 239.214844 237.996094 242.808594 C 237.097656 246.402344 236.109375 249.972656 235.039062 253.515625 C 233.964844 257.0625 232.804688 260.578125 231.558594 264.066406 C 230.3125 267.554688 228.984375 271.011719 227.566406 274.4375 C 226.152344 277.859375 224.652344 281.246094 223.074219 284.59375 C 221.492188 287.945312 219.828125 291.253906 218.085938 294.523438 C 216.34375 297.789062 214.519531 301.015625 212.617188 304.195312 C 210.71875 307.371094 208.738281 310.503906 206.683594 313.585938 C 204.628906 316.667969 202.5 319.699219 200.296875 322.675781 C 198.09375 325.652344 195.820312 328.574219 193.472656 331.441406 C 191.125 334.308594 188.710938 337.113281 186.226562 339.863281 C 183.742188 342.609375 181.191406 345.296875 178.578125 347.917969 C 177.988281 348.507812 177.460938 349.148438 177 349.839844 C 176.535156 350.53125 176.144531 351.261719 175.828125 352.03125 C 175.507812 352.800781 175.269531 353.59375 175.105469 354.410156 C 174.941406 355.230469 174.863281 356.054688 174.863281 356.886719 C 174.863281 357.71875 174.941406 358.542969 175.105469 359.359375 C 175.269531 360.175781 175.507812 360.96875 175.828125 361.738281 C 176.144531 362.507812 176.535156 363.238281 177 363.933594 C 177.460938 364.625 177.988281 365.265625 178.578125 365.855469 C 179.164062 366.441406 179.804688 366.96875 180.5 367.429688 C 181.191406 367.894531 181.921875 368.285156 182.691406 368.601562 C 183.460938 368.921875 184.253906 369.164062 185.070312 369.324219 C 185.886719 369.488281 186.710938 369.570312 187.542969 369.570312 C 188.378906 369.570312 189.203125 369.488281 190.019531 369.324219 C 190.835938 369.164062 191.628906 368.921875 192.398438 368.601562 C 193.167969 368.285156 193.898438 367.894531 194.589844 367.429688 C 195.28125 366.96875 195.921875 366.441406 196.511719 365.855469 C 199.417969 362.9375 202.25 359.949219 205.007812 356.890625 C 207.765625 353.832031 210.449219 350.710938 213.054688 347.523438 C 215.660156 344.332031 218.1875 341.082031 220.636719 337.773438 C 223.082031 334.460938 225.445312 331.089844 227.726562 327.660156 C 230.011719 324.234375 232.207031 320.753906 234.316406 317.214844 C 236.429688 313.679688 238.453125 310.097656 240.390625 306.460938 C 242.324219 302.828125 244.171875 299.148438 245.925781 295.421875 C 247.683594 291.699219 249.347656 287.933594 250.917969 284.125 C 252.488281 280.320312 253.964844 276.476562 255.347656 272.597656 C 256.730469 268.71875 258.019531 264.808594 259.210938 260.867188 C 260.402344 256.925781 261.496094 252.957031 262.496094 248.960938 C 263.492188 244.96875 264.390625 240.949219 265.191406 236.910156 C 265.992188 232.871094 266.695312 228.816406 267.296875 224.742188 C 267.898438 220.667969 268.402344 216.582031 268.804688 212.484375 C 269.207031 208.386719 269.507812 204.277344 269.707031 200.167969 C 269.910156 196.054688 270.011719 191.9375 270.011719 187.820312 C 270.007812 183.703125 269.910156 179.585938 269.707031 175.472656 C 269.503906 171.359375 269.203125 167.253906 268.800781 163.15625 C 268.398438 159.058594 267.894531 154.972656 267.289062 150.898438 C 266.6875 146.824219 265.984375 142.769531 265.183594 138.730469 C 264.382812 134.691406 263.484375 130.671875 262.484375 126.679688 C 261.488281 122.683594 260.390625 118.714844 259.199219 114.773438 C 258.007812 110.832031 256.71875 106.921875 255.335938 103.042969 C 253.949219 99.164062 252.472656 95.324219 250.898438 91.515625 C 249.328125 87.710938 247.664062 83.945312 245.90625 80.222656 C 244.152344 76.496094 242.304688 72.816406 240.367188 69.183594 C 238.433594 65.550781 236.40625 61.964844 234.296875 58.429688 C 232.183594 54.894531 229.984375 51.414062 227.703125 47.984375 C 225.421875 44.558594 223.054688 41.1875 220.609375 37.875 C 218.160156 34.566406 215.632812 31.316406 213.027344 28.128906 C 210.421875 24.9375 207.738281 21.816406 204.980469 18.761719 C 202.21875 15.703125 199.386719 12.714844 196.480469 9.796875 Z M 196.480469 9.796875 " fill-opacity="1" fill-rule="nonzero"/></g></g></g></svg>